<svg width="40" height="40" viewBox="0 0 40 40" fill="none" xmlns="http://www.w3.org/2000/svg">
<rect width="40" height="40" rx="10" fill="#1D1D1D"/>
<path d="M15.955 26.0137L14.5015 24.5544C13.4752 23.5241 11.8577 23.3782 10.6636 24.2083L9.98364 24.6809C9.20465 25.2225 8.72772 26.1005 8.69753 27.0488L8.66434 28.0914C8.6383 28.9097 8.27894 29.6818 7.66963 30.2286L7.17004 30.677C7.15437 30.6911 7.14381 30.7099 7.14002 30.7306C7.09653 30.9683 7.23828 31.2008 7.46948 31.2709L10.0483 32.0536L10.4347 32.1244C12.5665 32.5145 14.7474 31.7193 16.1329 30.0528C17.1225 28.8625 17.0474 27.1105 15.955 26.0137Z" fill="url(#paint0_linear_61_299)"/>
<path d="M15.3816 21.0868L19.2865 21.5938L19.5968 25.3568L17.8176 27.1131C17.4246 27.5011 16.7914 27.497 16.4034 27.1039L13.5933 24.2573C13.2053 23.8643 13.2094 23.2311 13.6025 22.8431L15.3816 21.0868Z" fill="#D3D3D3"/>
<path d="M15.3816 21.0868L19.5968 25.3568L32.8084 11.6939C33.7746 10.6946 33.7664 9.10676 32.7899 8.11754C31.8134 7.12832 30.2257 7.0996 29.2141 8.05286L15.3816 21.0868Z" fill="#484848"/>
<defs>
<linearGradient id="paint0_linear_61_299" x1="11.9799" y1="23.6715" x2="11.9799" y2="32.2221" gradientUnits="userSpaceOnUse">
<stop stop-color="#D966FF"/>
<stop offset="1" stop-color="#C766FF"/>
</linearGradient>
</defs>
</svg>
