<svg width="40" height="40" viewBox="0 0 40 40" fill="none" xmlns="http://www.w3.org/2000/svg">
<rect width="40" height="40" rx="10" fill="#1D1D1D"/>
<path d="M15.552 24.98C15.8787 25.2107 16.268 25.3333 16.6667 25.332V25.3267C17.043 25.3273 17.4113 25.2175 17.7258 25.0108C18.0403 24.8041 18.2872 24.5097 18.436 24.164L19.2533 21.6787C19.4422 21.1157 19.7594 20.6043 20.1798 20.185C20.6003 19.7657 21.1125 19.45 21.676 19.2627L24.0467 18.492C24.4285 18.3578 24.7584 18.1066 24.9892 17.7742C25.2201 17.4417 25.3402 17.0449 25.3326 16.6403C25.3249 16.2356 25.1898 15.8436 24.9465 15.5202C24.7031 15.1967 24.364 14.9582 23.9773 14.8387L21.6373 14.0787C21.0712 13.8904 20.5569 13.5727 20.1351 13.1507C19.7134 12.7287 19.3959 12.2142 19.208 11.648L18.4373 9.27865C18.3029 8.90129 18.0543 8.57515 17.726 8.34557C17.3978 8.11599 17.0061 7.99436 16.6056 7.99759C16.205 8.00082 15.8154 8.12873 15.4908 8.36357C15.1663 8.59841 14.923 8.9285 14.7947 9.30799L14.0173 11.6973C13.8299 12.247 13.5201 12.747 13.1113 13.1595C12.7025 13.572 12.2053 13.8863 11.6573 14.0787L9.288 14.84C8.9082 14.9719 8.57921 15.2193 8.34718 15.5477C8.11516 15.876 7.99174 16.2687 7.99424 16.6708C7.99674 17.0728 8.12503 17.464 8.36112 17.7894C8.59721 18.1148 8.92925 18.3582 9.31067 18.4853L11.6493 19.244C12.2153 19.4337 12.7294 19.7524 13.151 20.1749C13.5727 20.5975 13.8902 21.1123 14.0787 21.6787L14.8493 24.0453C14.9813 24.4227 15.2267 24.7507 15.552 24.98ZM25.7747 31.7093C25.5206 31.5282 25.3295 31.2723 25.228 30.9773L24.7907 29.6347C24.7065 29.379 24.5637 29.1466 24.3736 28.956C24.1835 28.7655 23.9515 28.6221 23.696 28.5373L22.3747 28.1067C22.0722 28.0046 21.8092 27.8105 21.6225 27.5516C21.4358 27.2927 21.3347 26.9819 21.3333 26.6627C21.3335 26.3455 21.4327 26.0363 21.617 25.7782C21.8012 25.5201 22.0614 25.3259 22.3613 25.2227L23.7027 24.788C23.952 24.6995 24.1778 24.555 24.3627 24.3657C24.5476 24.1765 24.6867 23.9473 24.7693 23.696L25.2013 22.3733C25.303 22.0743 25.495 21.8143 25.7508 21.6292C26.0066 21.444 26.3136 21.343 26.6294 21.3399C26.9452 21.3368 27.2541 21.4319 27.5135 21.612C27.7729 21.7921 27.9699 22.0484 28.0773 22.3453L28.516 23.6973C28.6019 23.9508 28.7453 24.1809 28.935 24.3696C29.1247 24.5584 29.3555 24.7007 29.6093 24.7853L30.932 25.216C31.2369 25.3113 31.504 25.5003 31.6956 25.756C31.8871 26.0117 31.9932 26.3212 31.999 26.6406C32.0047 26.96 31.9098 27.2731 31.7276 27.5355C31.5454 27.798 31.2853 27.9964 30.984 28.1027L29.632 28.5413C29.3778 28.6271 29.1469 28.7708 28.9577 28.961C28.7684 29.1512 28.6259 29.3827 28.5413 29.6373L28.112 30.956C28.008 31.2627 27.8107 31.5293 27.5453 31.716C27.2865 31.9 26.9765 31.9983 26.6589 31.9971C26.3413 31.9959 26.0321 31.8953 25.7747 31.7093Z" fill="url(#paint0_linear_61_306)"/>
<defs>
<linearGradient id="paint0_linear_61_306" x1="19.9967" y1="7.99753" x2="19.9967" y2="31.9971" gradientUnits="userSpaceOnUse">
<stop stop-color="#D966FF"/>
<stop offset="1" stop-color="#C766FF"/>
</linearGradient>
</defs>
</svg>
