<svg width="40" height="40" viewBox="0 0 40 40" fill="none" xmlns="http://www.w3.org/2000/svg">
<rect width="40" height="40" rx="10" fill="#1D1D1D"/>
<path d="M14 15V25H6V26H14V34H15V26H25V34H26V26H34V25H26V15H34V14H26V6H25V14H15V6H14V14H6V15H14ZM15 15H25V25H15V15Z" fill="#373737"/>
<path d="M6.11995 30.9761C6.0416 30.6637 6 30.3367 6 30V28.2988L13.0621 19.3261C13.9071 18.4917 15.2618 18.4786 16.1229 19.2964L19.2711 23.3369C19.4679 23.5238 19.7779 23.5196 19.9696 23.3273L33.7216 8.53076C33.9013 8.98559 34 9.48125 34 9.99997V11.187L21.1318 24.9016C20.2906 25.7334 18.9423 25.7512 18.0796 24.9417L14.9297 20.9247C14.7335 20.7406 14.4268 20.7448 14.2357 20.9342L6.11995 30.9761Z" fill="url(#paint0_linear_61_264)"/>
<defs>
<linearGradient id="paint0_linear_61_264" x1="20" y1="8.53076" x2="20" y2="30.9761" gradientUnits="userSpaceOnUse">
<stop stop-color="#D966FF"/>
<stop offset="1" stop-color="#C766FF"/>
</linearGradient>
</defs>
</svg>
