<svg width="117" height="35" viewBox="0 0 117 35" fill="none" xmlns="http://www.w3.org/2000/svg">
<path fill-rule="evenodd" clip-rule="evenodd" d="M8 6.5C4.68629 6.5 2 9.18629 2 12.5V20.5C2 23.8137 4.68629 26.5 8 26.5H12V23.1302C9.52917 23.1353 7.06445 22.1413 5.2627 20.1758L6.7373 18.8242C8.14462 20.3594 10.0701 21.1352 12 21.1301V6.5H8ZM8.5 10.5C7.67157 10.5 7 11.1716 7 12V14C7 14.8284 7.67157 15.5 8.5 15.5C9.32843 15.5 10 14.8284 10 14V12C10 11.1716 9.32843 10.5 8.5 10.5Z" fill="black"/>
<mask id="path-2-inside-1_58_228" fill="white">
<path fill-rule="evenodd" clip-rule="evenodd" d="M16.3086 26.4922L16 26.5H12V25.5H16C18.7614 25.5 21 23.2614 21 20.5V12.5C21 9.73858 18.7614 7.5 16 7.5H12V6.5H16L16.3086 6.50781C19.4789 6.66843 22 9.28979 22 12.5V20.5L21.9922 20.8086C21.8368 23.8767 19.3767 26.3368 16.3086 26.4922ZM12 21.1301V7.5H8C5.23858 7.5 3 9.73858 3 12.5V20.5C3 23.2614 5.23858 25.5 8 25.5H12V23.1302C14.2035 23.1258 16.4119 22.3268 18.1592 20.7139L18.6787 20.2344L17.3213 18.7656L16.8027 19.2441C15.4401 20.5019 13.7183 21.1255 12 21.1301ZM12 21.1301V23.1302C9.52917 23.1353 7.06445 22.1413 5.2627 20.1758L6.7373 18.8242C8.14462 20.3594 10.0701 21.1352 12 21.1301ZM2.00781 20.8086C2.02324 21.1132 2.06139 21.4118 2.1206 21.7028C2.04152 21.3142 2 20.9119 2 20.5L2.00781 20.8086ZM7 12C7 11.1716 7.67157 10.5 8.5 10.5C9.32843 10.5 10 11.1716 10 12V14C10 14.8284 9.32843 15.5 8.5 15.5C7.67157 15.5 7 14.8284 7 14V12ZM15.5 10.5C14.6716 10.5 14 11.1716 14 12V14C14 14.8284 14.6716 15.5 15.5 15.5C16.3284 15.5 17 14.8284 17 14V12C17 11.1716 16.3284 10.5 15.5 10.5Z"/>
</mask>
<path fill-rule="evenodd" clip-rule="evenodd" d="M16.3086 26.4922L16 26.5H12V25.5H16C18.7614 25.5 21 23.2614 21 20.5V12.5C21 9.73858 18.7614 7.5 16 7.5H12V6.5H16L16.3086 6.50781C19.4789 6.66843 22 9.28979 22 12.5V20.5L21.9922 20.8086C21.8368 23.8767 19.3767 26.3368 16.3086 26.4922ZM12 21.1301V7.5H8C5.23858 7.5 3 9.73858 3 12.5V20.5C3 23.2614 5.23858 25.5 8 25.5H12V23.1302C14.2035 23.1258 16.4119 22.3268 18.1592 20.7139L18.6787 20.2344L17.3213 18.7656L16.8027 19.2441C15.4401 20.5019 13.7183 21.1255 12 21.1301ZM12 21.1301V23.1302C9.52917 23.1353 7.06445 22.1413 5.2627 20.1758L6.7373 18.8242C8.14462 20.3594 10.0701 21.1352 12 21.1301ZM2.00781 20.8086C2.02324 21.1132 2.06139 21.4118 2.1206 21.7028C2.04152 21.3142 2 20.9119 2 20.5L2.00781 20.8086ZM7 12C7 11.1716 7.67157 10.5 8.5 10.5C9.32843 10.5 10 11.1716 10 12V14C10 14.8284 9.32843 15.5 8.5 15.5C7.67157 15.5 7 14.8284 7 14V12ZM15.5 10.5C14.6716 10.5 14 11.1716 14 12V14C14 14.8284 14.6716 15.5 15.5 15.5C16.3284 15.5 17 14.8284 17 14V12C17 11.1716 16.3284 10.5 15.5 10.5Z" fill="black"/>
<path d="M16 26.5V27.5H16.0127L16.0253 27.4997L16 26.5ZM16.3086 26.4922L16.3339 27.4919L16.3466 27.4915L16.3592 27.4909L16.3086 26.4922ZM12 26.5H11V27.5H12V26.5ZM12 6.5V5.5H11V6.5H12ZM16 6.5L16.0253 5.50032L16.0127 5.5H16V6.5ZM16.3086 6.50781L16.3592 5.50909L16.3466 5.50845L16.3339 5.50813L16.3086 6.50781ZM22 20.5L22.9997 20.5253L23 20.5127V20.5H22ZM21.9922 20.8086L22.9909 20.8592L22.9915 20.8466L22.9919 20.8339L21.9922 20.8086ZM18.1592 20.7139L17.481 19.979L17.4809 19.9791L18.1592 20.7139ZM18.6787 20.2344L19.3569 20.9692L20.0923 20.2905L19.4131 19.5556L18.6787 20.2344ZM17.3213 18.7656L18.0557 18.0869L17.3775 17.3531L16.6431 18.0307L17.3213 18.7656ZM16.8027 19.2441L16.1246 18.5092L16.1245 18.5093L16.8027 19.2441ZM5.2627 20.1758L4.58701 19.4386L3.84978 20.1143L4.52554 20.8515L5.2627 20.1758ZM6.7373 18.8242L7.47445 18.1485L6.79877 17.4114L6.06162 18.087L6.7373 18.8242ZM2.1206 21.7028L1.14068 21.9022L3.10052 21.5034L2.1206 21.7028ZM2.00781 20.8086L1.00813 20.8339L1.00845 20.8466L1.00909 20.8592L2.00781 20.8086ZM2 20.5L2.99968 20.4747L1 20.5H2ZM16 26.5L16.0253 27.4997L16.3339 27.4919L16.3086 26.4922L16.2833 25.4925L15.9747 25.5003L16 26.5ZM12 26.5V27.5H16V26.5V25.5H12V26.5ZM12 25.5H11V26.5H12H13V25.5H12ZM12 25.5V26.5H16V25.5V24.5H12V25.5ZM16 25.5V26.5C19.3137 26.5 22 23.8137 22 20.5H21H20C20 22.7091 18.2091 24.5 16 24.5V25.5ZM21 20.5H22V12.5H21H20V20.5H21ZM21 12.5H22C22 9.18629 19.3137 6.5 16 6.5V7.5V8.5C18.2091 8.5 20 10.2909 20 12.5H21ZM16 7.5V6.5H12V7.5V8.5H16V7.5ZM12 6.5H11V7.5H12H13V6.5H12ZM16 6.5V5.5H12V6.5V7.5H16V6.5ZM16.3086 6.50781L16.3339 5.50813L16.0253 5.50032L16 6.5L15.9747 7.49968L16.2833 7.50749L16.3086 6.50781ZM22 12.5H23C23 8.75445 20.0587 5.69652 16.3592 5.50909L16.3086 6.50781L16.258 7.50653C18.8991 7.64034 21 9.82513 21 12.5H22ZM22 20.5H23V12.5H22H21V20.5H22ZM21.9922 20.8086L22.9919 20.8339L22.9997 20.5253L22 20.5L21.0003 20.4747L20.9925 20.7833L21.9922 20.8086ZM16.3086 26.4922L16.3592 27.4909C19.9398 27.3095 22.8095 24.4398 22.9909 20.8592L21.9922 20.8086L20.9935 20.758C20.864 23.3136 18.8136 25.364 16.258 25.4935L16.3086 26.4922ZM12 7.5H11V21.1301H12H13V7.5H12ZM12 7.5V6.5H8V7.5V8.5H12V7.5ZM8 7.5V6.5C4.68629 6.5 2 9.18629 2 12.5H3H4C4 10.2909 5.79086 8.5 8 8.5V7.5ZM3 12.5H2V20.5H3H4V12.5H3ZM3 20.5H2C2 23.8137 4.68629 26.5 8 26.5V25.5V24.5C5.79086 24.5 4 22.7091 4 20.5H3ZM8 25.5V26.5H12V25.5V24.5H8V25.5ZM12 23.1302H11V25.5H12H13V23.1302H12ZM18.1592 20.7139L17.4809 19.9791C15.9249 21.4153 13.9607 22.1263 11.998 22.1302L12 23.1302L12.002 24.1302C14.4463 24.1253 16.8988 23.2382 18.8375 21.4487L18.1592 20.7139ZM18.6787 20.2344L18.0005 19.4995L17.481 19.979L18.1592 20.7139L18.8374 21.4487L19.3569 20.9692L18.6787 20.2344ZM17.3213 18.7656L16.5869 19.4444L17.9443 20.9131L18.6787 20.2344L19.4131 19.5556L18.0557 18.0869L17.3213 18.7656ZM16.8027 19.2441L17.4809 19.9791L17.9995 19.5005L17.3213 18.7656L16.6431 18.0307L16.1246 18.5092L16.8027 19.2441ZM12 21.1301L12.0027 22.1301C13.9616 22.1249 15.9272 21.4132 17.481 19.9789L16.8027 19.2441L16.1245 18.5093C14.953 19.5906 13.4751 20.1262 11.9973 20.1301L12 21.1301ZM12 23.1302H13V21.1301H12H11V23.1302H12ZM5.2627 20.1758L4.52554 20.8515C6.52507 23.0328 9.26209 24.1358 12.002 24.1302L12 23.1302L11.998 22.1302C9.79626 22.1347 7.60383 21.2499 5.99985 19.5001L5.2627 20.1758ZM6.7373 18.8242L6.06162 18.087L4.58701 19.4386L5.2627 20.1758L5.93838 20.913L7.41299 19.5614L6.7373 18.8242ZM12 21.1301L11.9973 20.1301C10.3368 20.1345 8.68384 19.4678 7.47445 18.1485L6.7373 18.8242L6.00016 19.4999C7.6054 21.2511 9.80344 22.1359 12.0027 22.1301L12 21.1301ZM2.1206 21.7028L3.10052 21.5034C3.05125 21.2612 3.01942 21.0124 3.00653 20.758L2.00781 20.8086L1.00909 20.8592C1.02707 21.2141 1.07154 21.5624 1.14068 21.9022L2.1206 21.7028ZM2 20.5H1C1 20.9793 1.04833 21.4484 1.14068 21.9022L2.1206 21.7028L3.10052 21.5034C3.03472 21.18 3 20.8446 3 20.5H2ZM2.00781 20.8086L3.00749 20.7833L2.99968 20.4747L2 20.5L1.00032 20.5253L1.00813 20.8339L2.00781 20.8086ZM8.5 10.5V9.5C7.11929 9.5 6 10.6193 6 12H7H8C8 11.7239 8.22386 11.5 8.5 11.5V10.5ZM10 12H11C11 10.6193 9.88071 9.5 8.5 9.5V10.5V11.5C8.77614 11.5 9 11.7239 9 12H10ZM10 14H11V12H10H9V14H10ZM8.5 15.5V16.5C9.88071 16.5 11 15.3807 11 14H10H9C9 14.2761 8.77614 14.5 8.5 14.5V15.5ZM7 14H6C6 15.3807 7.11929 16.5 8.5 16.5V15.5V14.5C8.22386 14.5 8 14.2761 8 14H7ZM7 12H6V14H7H8V12H7ZM14 12H15C15 11.7239 15.2239 11.5 15.5 11.5V10.5V9.5C14.1193 9.5 13 10.6193 13 12H14ZM14 14H15V12H14H13V14H14ZM15.5 15.5V14.5C15.2239 14.5 15 14.2761 15 14H14H13C13 15.3807 14.1193 16.5 15.5 16.5V15.5ZM17 14H16C16 14.2761 15.7761 14.5 15.5 14.5V15.5V16.5C16.8807 16.5 18 15.3807 18 14H17ZM17 12H16V14H17H18V12H17ZM15.5 10.5V11.5C15.7761 11.5 16 11.7239 16 12H17H18C18 10.6193 16.8807 9.5 15.5 9.5V10.5Z" fill="black" mask="url(#path-2-inside-1_58_228)"/>
<path d="M27.784 25L35.272 8.2H39.112L46.624 25H42.544L36.4 10.168H37.936L31.768 25H27.784ZM31.528 21.4L32.56 18.448H41.2L42.256 21.4H31.528ZM50.9273 25L45.5033 12.088H49.3673L53.8793 23.2H51.9593L56.6393 12.088H60.2393L54.7913 25H50.9273ZM69.2652 25V22.48L69.0252 21.928V17.416C69.0252 16.616 68.7772 15.992 68.2812 15.544C67.8012 15.096 67.0572 14.872 66.0492 14.872C65.3612 14.872 64.6812 14.984 64.0092 15.208C63.3532 15.416 62.7932 15.704 62.3292 16.072L60.9852 13.456C61.6892 12.96 62.5372 12.576 63.5292 12.304C64.5212 12.032 65.5292 11.896 66.5532 11.896C68.5212 11.896 70.0492 12.36 71.1372 13.288C72.2252 14.216 72.7692 15.664 72.7692 17.632V25H69.2652ZM65.3292 25.192C64.3212 25.192 63.4572 25.024 62.7372 24.688C62.0172 24.336 61.4652 23.864 61.0812 23.272C60.6972 22.68 60.5052 22.016 60.5052 21.28C60.5052 20.512 60.6892 19.84 61.0572 19.264C61.4412 18.688 62.0412 18.24 62.8572 17.92C63.6732 17.584 64.7372 17.416 66.0492 17.416H69.4812V19.6H66.4572C65.5772 19.6 64.9692 19.744 64.6332 20.032C64.3132 20.32 64.1532 20.68 64.1532 21.112C64.1532 21.592 64.3372 21.976 64.7052 22.264C65.0892 22.536 65.6092 22.672 66.2652 22.672C66.8892 22.672 67.4492 22.528 67.9452 22.24C68.4412 21.936 68.8012 21.496 69.0252 20.92L69.6012 22.648C69.3292 23.48 68.8332 24.112 68.1132 24.544C67.3932 24.976 66.4652 25.192 65.3292 25.192ZM76.1577 25V7.192H79.9017V25H76.1577ZM89.5204 25.192C88.1444 25.192 86.9204 24.904 85.8484 24.328C84.7924 23.752 83.9524 22.968 83.3284 21.976C82.7204 20.968 82.4164 19.824 82.4164 18.544C82.4164 17.248 82.7204 16.104 83.3284 15.112C83.9524 14.104 84.7924 13.32 85.8484 12.76C86.9204 12.184 88.1444 11.896 89.5204 11.896C90.8804 11.896 92.0964 12.184 93.1684 12.76C94.2404 13.32 95.0804 14.096 95.6884 15.088C96.2964 16.08 96.6004 17.232 96.6004 18.544C96.6004 19.824 96.2964 20.968 95.6884 21.976C95.0804 22.968 94.2404 23.752 93.1684 24.328C92.0964 24.904 90.8804 25.192 89.5204 25.192ZM89.5204 22.12C90.1444 22.12 90.7044 21.976 91.2004 21.688C91.6964 21.4 92.0884 20.992 92.3764 20.464C92.6644 19.92 92.8084 19.28 92.8084 18.544C92.8084 17.792 92.6644 17.152 92.3764 16.624C92.0884 16.096 91.6964 15.688 91.2004 15.4C90.7044 15.112 90.1444 14.968 89.5204 14.968C88.8964 14.968 88.3364 15.112 87.8404 15.4C87.3444 15.688 86.9444 16.096 86.6404 16.624C86.3524 17.152 86.2084 17.792 86.2084 18.544C86.2084 19.28 86.3524 19.92 86.6404 20.464C86.9444 20.992 87.3444 21.4 87.8404 21.688C88.3364 21.976 88.8964 22.12 89.5204 22.12ZM105.175 29.848C103.959 29.848 102.783 29.696 101.647 29.392C100.527 29.104 99.591 28.664 98.839 28.072L100.327 25.384C100.871 25.832 101.559 26.184 102.391 26.44C103.239 26.712 104.071 26.848 104.887 26.848C106.215 26.848 107.175 26.552 107.767 25.96C108.375 25.368 108.679 24.488 108.679 23.32V21.376L108.919 18.136L108.871 14.872V12.088H112.423V22.84C112.423 25.24 111.799 27.008 110.551 28.144C109.303 29.28 107.511 29.848 105.175 29.848ZM104.599 24.376C103.399 24.376 102.311 24.12 101.335 23.608C100.375 23.08 99.599 22.352 99.007 21.424C98.431 20.48 98.143 19.384 98.143 18.136C98.143 16.872 98.431 15.776 99.007 14.848C99.599 13.904 100.375 13.176 101.335 12.664C102.311 12.152 103.399 11.896 104.599 11.896C105.687 11.896 106.647 12.12 107.479 12.568C108.311 13 108.959 13.68 109.423 14.608C109.887 15.52 110.119 16.696 110.119 18.136C110.119 19.56 109.887 20.736 109.423 21.664C108.959 22.576 108.311 23.256 107.479 23.704C106.647 24.152 105.687 24.376 104.599 24.376ZM105.343 21.304C105.999 21.304 106.583 21.176 107.095 20.92C107.607 20.648 108.007 20.272 108.295 19.792C108.583 19.312 108.727 18.76 108.727 18.136C108.727 17.496 108.583 16.944 108.295 16.48C108.007 16 107.607 15.632 107.095 15.376C106.583 15.104 105.999 14.968 105.343 14.968C104.687 14.968 104.103 15.104 103.591 15.376C103.079 15.632 102.671 16 102.367 16.48C102.079 16.944 101.935 17.496 101.935 18.136C101.935 18.76 102.079 19.312 102.367 19.792C102.671 20.272 103.079 20.648 103.591 20.92C104.103 21.176 104.687 21.304 105.343 21.304Z" fill="black"/>
</svg>
